<?xml version="1.0" standalone="no"?><!DOCTYPE svg PUBLIC "-//W3C//DTD SVG 1.1//EN" "http://www.w3.org/Graphics/SVG/1.1/DTD/svg11.dtd"><svg t="1651117896888" class="icon" viewBox="0 0 1024 1024" version="1.1" xmlns="http://www.w3.org/2000/svg" p-id="1576" xmlns:xlink="http://www.w3.org/1999/xlink" width="64" height="64"><defs><style type="text/css">@font-face { font-family: feedback-iconfont; src: url("//at.alicdn.com/t/font_1031158_u69w8yhxdu.woff2?t=1630033759944") format("woff2"), url("//at.alicdn.com/t/font_1031158_u69w8yhxdu.woff?t=1630033759944") format("woff"), url("//at.alicdn.com/t/font_1031158_u69w8yhxdu.ttf?t=1630033759944") format("truetype"); }
</style></defs><path d="M576.112 576.066l210.964-0.02v82.371c0 11.785 14.249 17.688 22.582 9.354l145.79-145.79c5.166-5.165 5.166-13.541 0-18.708l-145.79-145.79c-8.333-8.333-22.582-2.431-22.582 9.354v81.449l-210.964-0.264-128.025 0.702-211.628-0.438V366.27c0-11.785-14.249-17.688-22.582-9.354L68.087 502.707c-5.166 5.166-5.166 13.542 0 18.708l145.789 145.79c8.333 8.333 22.582 2.431 22.582-9.354v-81.804l211.628 0.722 128.026-0.703z" p-id="1577" fill="#ffffff"></path></svg>